# xmcd
#
# Track frame offsets:
#	150
#	35391
#	76245
#	92002
#	192543
#	215396
#	254697
#	297942
#
# Disc length: 4409 seconds
#
# Revision: 0
# Processed by: cddbd v1.5.2PL0 Copyright (c) Steve Scherf et al.
# Submitted via: audiograbber 1.83.01
#
DISCID=70113708
DTITLE=Grateful Dead - 92-03-24 The Palace, Auburn Hills MI
DYEAR=1900
DGENRE=
TTITLE0=Saint Of Circumstance
TTITLE1=Foolish Heart
TTITLE2=Drums
TTITLE3=Space
TTITLE4=I Need A Miracle
TTITLE5=Stella Blue
TTITLE6=Throwing Stones
TTITLE7=Not Fade Away
EXTD=
EXTT0=
EXTT1=
EXTT2=
EXTT3=
EXTT4=
EXTT5=
EXTT6=
EXTT7=
PLAYORDER=
